# xmcd
#
# Track frame offsets:
#	150
#	13538
#	28600
#	45449
#	59781
#	72633
#	88938
#	101952
#	116223
#	130701
#	142046
#	158690
#	174996
#	188023
#	203946
#	216394
#	229387
#	243305
#	265213
#	278643
#
# Disc length: 3804 seconds
#
# Revision: 0
# Processed by: cddbd v1.5.2PL0 Copyright (c) Steve Scherf et al.
# Submitted via: audiograbber 1.83.01
#
DISCID=310eda14
DTITLE=Minidisco - Vacansoleil - Campingkids Minidisco 4
DYEAR=2011
DGENRE=Disco
TTITLE0=Camping Kids (Vacansoleil)
TTITLE1=Minidisco!
TTITLE2=Le Professeur de Danse
TTITLE3=Hey Now
TTITLE4=Klap Klap Stap Stap (Bofkont)
TTITLE5=Ciapa La Galeina
TTITLE6=Boum Boum Secoue Secoue
TTITLE7=Cowboy Joe
TTITLE8=Chocolade
TTITLE9=Mignon Mignon
TTITLE10=Dame Tu Mano
TTITLE11=Tchi Ki Tcha
TTITLE12=Stendi i Panni
TTITLE13=StarTrekking
TTITLE14=Tapati Tapata
TTITLE15=Johnny Le Cowboy
TTITLE16=Bladibla
TTITLE17=Happy Birthday
TTITLE18=El Tren mix
TTITLE19=Nos Vamos A La Cama Sp
EXTD=
EXTT0=
EXTT1=
EXTT2=
EXTT3=
EXTT4=
EXTT5=
EXTT6=
EXTT7=
EXTT8=
EXTT9=
EXTT10=
EXTT11=
EXTT12=
EXTT13=
EXTT14=
EXTT15=
EXTT16=
EXTT17=
EXTT18=
EXTT19=
PLAYORDER=
